<svg viewBox="0 0 207 66" xmlns="http://www.w3.org/2000/svg" xmlns:xlink="http://www.w3.org/1999/xlink" width="182px" height="57px" style="cursor: pointer;"><g id="Page-1" stroke="none" stroke-width="1" fill="none" fill-rule="evenodd"><g id="2" transform="translate(-74.000000, -428.000000)" fill-rule="nonzero"><g id="Group-6" transform="translate(4.000000, 395.000000)"><g id="Group-2" transform="translate(70.000000, 33.000000)"><g id="prefix__Group_1815"><path d="M3.02708942,32.9147725 C4.16733231,34.0920923 5.40573733,35.1648626 6.72815435,36.1208258 C7.07518613,36.3759909 7.53353498,36.406213 7.90954931,36.1987236 C8.28556365,35.9912341 8.51364648,35.5822302 8.49743321,35.1445154 C8.19145118,27.9348382 8.79829114,5.65618472 27.3907255,0.0439016396 C27.7539912,-0.0652642118 28.1464308,0.0324555935 28.4205019,0.300322105 C28.6945729,0.568188617 28.8087336,0.965600358 28.7200637,1.34314555 C23.9092649,22.2391932 35.9589543,28.6205085 41.4351542,18.758271 C41.6121646,18.4306748 41.9435245,18.2221671 42.3083837,18.2087928 C42.673243,18.1954186 43.0182621,18.3791328 43.2176094,18.6929333 C48.0027877,26.2781145 46.7400628,33.0649741 45.4561095,36.607479 C45.2439307,37.2117501 45.4175476,37.887676 45.8924372,38.306191 C46.3673267,38.7247061 47.044807,38.798843 47.5950556,38.4925092 C48.4038083,38.0363856 49.1482706,37.4694257 49.8079352,36.8072472 C49.9730169,36.6455372 50.2159586,36.5998941 50.4261829,36.6910927 C50.6364072,36.7822913 50.7737343,36.9929011 50.7756602,37.2270607 L50.7756602,37.2420808 C50.7808333,51.2200065 39.9850291,62.6861062 26.3685988,63.1645385 C12.7521686,63.6429708 1.21704272,52.9614995 0.290087486,39.0159618 C0.175552601,37.2816953 0.229499397,35.5400398 0.451130659,33.8167332 C0.524071788,33.2277502 0.917630264,32.7328225 1.46537791,32.5412452 C2.01312556,32.3496679 2.61940069,32.4948991 3.02782143,32.9155235 L3.02708942,32.9147725 Z" id="prefix__Path_2427" fill="#F1673D"></path><path d="M3.05201334,32.9992645 C4.20211885,34.173539 5.4512386,35.2435321 6.78509924,36.1970172 C7.13513348,36.4515216 7.59744789,36.4816655 7.97671544,36.2747133 C8.35598298,36.067761 8.58603915,35.6598161 8.5696856,35.2232345 C8.31126391,29.2232348 8.69594306,12.7468311 19.736456,4.21200001 C18.9095066,5.15956551 14.8951102,9.53035182 11.7172618,21.2696771 C10.6097403,25.3745458 10.785467,32.7940211 11.3045254,40.0636837 C11.590266,44.0659307 2.95528979,37.6584404 3.34144563,41.7775413 C3.95058247,48.2659305 13.7765135,55.81799 19.4699125,57.9857802 C30.8965813,62.3363418 46.6152652,52.3340951 45.0514448,54.1782897 C38.3084044,62.1343205 27.4952661,65.1683955 17.6808324,61.8582516 C7.86639866,58.5481078 0.996144482,49.5499013 0.290592991,39.0816613 C0.175067169,37.3518848 0.229480704,35.6147386 0.453029482,33.8958937 C0.526601685,33.3084357 0.92356516,32.8147893 1.47605183,32.623708 C2.02853849,32.4326267 2.64005901,32.577482 3.05201334,32.9970174 L3.05201334,32.9992645 Z" id="prefix__Path_2428" fill="#EE4036"></path></g><g id="Group" transform="translate(64.584000, 7.020000)"><path d="M17.5088805,19.8708121 C17.3803357,20.3255801 17.0087674,20.6706078 16.5457365,20.7651601 C14.9966271,21.0955291 13.5176866,21.6957546 12.1764885,22.5384121 C8.50502852,24.8816881 6.61805252,30.0189241 7.30601252,34.4345041 C8.24669252,40.4955721 14.3667285,39.7500481 17.6422605,38.8893961 C18.0732106,38.7756218 18.5321267,38.9002855 18.8462803,39.2164659 C19.1604339,39.5326463 19.2821439,39.9923547 19.1656006,40.4225641 C18.8328526,41.6426401 18.4636006,42.8346361 18.2431726,43.5422521 C18.1163528,43.9515228 17.7907743,44.2686447 17.3783085,44.3846521 C1.4050005,48.7721521 -3.62974352,34.7588281 2.5759365,23.5886041 C5.51365758,18.0026368 11.1257984,14.3279134 17.4204285,13.868712 C17.8237745,13.8424493 18.2149112,14.0129119 18.4702582,14.3262416 C18.7256053,14.6395714 18.8136195,15.0570626 18.7064926,15.446808 L17.5088805,19.8708121 Z" id="prefix__Path_2429" fill="#F05A28"></path><path d="M38.8173886,44.3916721 C38.8173886,44.5545361 38.7387646,44.6275441 38.5267606,44.5699801 L33.0244846,43.6068361 C32.938958,43.578046 32.890866,43.487411 32.9149726,43.4004481 L32.9992126,42.9371281 C34.3316086,35.6279041 33.5734486,33.9964561 33.1859446,33.6342241 C32.709028,33.301078 32.1652256,33.0758911 31.5924046,32.9743441 C31.2788021,32.8907094 30.9443526,32.9468189 30.675214,33.1282183 C30.4060755,33.3096176 30.2285625,33.5985708 30.1884046,33.9206401 L28.9781566,43.5366361 C28.9057098,44.1152415 28.4025362,44.5421766 27.8198566,44.5194361 L24.0669646,44.3607841 C23.7602996,44.3467452 23.4727444,44.2077988 23.2711753,43.9762596 C23.0696063,43.7447204 22.9715909,43.4407679 22.9999246,43.1350921 L25.9483246,11.790792 C25.9787392,11.4620958 26.1522051,11.1634198 26.4226339,10.9741196 C26.6930627,10.7848195 27.0330721,10.7240628 27.3523246,10.807992 L32.0318566,12.044916 C32.5755019,12.1895 32.9283416,12.7139589 32.8574086,13.272012 L31.3761886,24.7118041 C31.3006914,25.2801769 31.6697373,25.8127703 32.2284166,25.9417081 C34.196084,26.3176522 36.0372689,27.1834388 37.5818686,28.4590801 C39.2273566,29.9950561 41.5776526,34.1073721 38.8089646,44.3902681 L38.8173886,44.3916721 Z" id="prefix__Path_2430" fill="#F05A28"></path><path d="M50.3315926,25.7886721 C50.3647926,25.781381 50.3994799,25.7903438 50.424992,25.8128056 C50.4505041,25.8352673 50.4637881,25.8685401 50.4607606,25.9023961 L48.7198006,45.5752441 L48.4895446,45.5752441 C47.7159406,45.5583961 43.8423046,45.4685401 43.4084686,45.3351601 L43.2203326,45.2790001 L44.3575726,27.1533601 C44.3606235,27.1052014 44.3948371,27.0647154 44.4418126,27.0536761 L50.3315926,25.7886721 Z M44.8237006,20.9392561 C44.6010715,20.4394248 44.5869228,19.8714563 44.7843886,19.3611601 C44.9745446,18.8661921 45.301822,18.4356664 45.7278766,18.1200241 C46.4331536,17.6119978 47.3565876,17.5208733 48.1475586,17.8812497 C48.9385297,18.241626 49.4757267,18.9982325 49.5551806,19.8637921 C49.5661695,20.1253633 49.5266028,20.3865988 49.4386486,20.6331841 C49.2114636,21.1900648 48.7704578,21.6325877 48.2143606,21.8616841 C47.9086644,22.0036733 47.5819777,22.0951835 47.2470046,22.1326561 C46.266423,22.2988398 45.2895744,21.8186172 44.8222966,20.9406601 L44.8237006,20.9392561 Z" id="prefix__Path_2431" fill="#F05A28"></path><path d="M75.5502407,2.95542001 L69.0202367,41.4151921 C68.9389503,41.8708938 68.6149979,42.2456743 68.1758575,42.3920544 C67.736717,42.5384345 67.2526868,42.4329816 66.9142367,42.1171921 L61.6141367,37.0922761 C61.2461972,36.7457847 60.7071858,36.6518669 60.2437412,36.8534974 C59.7802965,37.0551279 59.4815767,37.5135167 59.4842687,38.0189161 L59.5306007,43.3611361 C59.533434,43.7874993 59.3210586,44.1865394 58.9658168,44.4223293 C58.6105751,44.6581192 58.1603788,44.6988578 57.7685807,44.5306681 L53.5734287,42.7195081 L53.5888727,42.5215441 L54.6629327,27.0775441 C54.6958278,26.6248432 54.968999,26.2245646 55.378566,26.0289245 C55.7881331,25.8332844 56.271165,25.8723433 56.6439767,26.1312481 L62.6938127,30.3643081 C63.0555306,30.6165499 63.5225841,30.66197 63.9261249,30.4841482 C64.3296656,30.3063264 64.6113109,29.9309893 64.6692407,29.4938281 L68.0921927,3.35977201 C68.1654152,2.80538218 68.5943223,2.36505278 69.1465967,2.27728801 L74.1111407,1.498068 C74.511955,1.43617767 74.918118,1.57043734 75.2030825,1.85901608 C75.4880471,2.14759481 75.6171774,2.55541756 75.5502407,2.95542001 L75.5502407,2.95542001 Z" id="prefix__Path_2432" fill="#FAAF40"></path><path d="M75.5502407,2.95542001 L71.4533687,27.0831601 L64.6678367,29.4952321 L68.0907887,3.36117601 C68.1640112,2.80678618 68.5929183,2.36645678 69.1451927,2.27869201 L74.1097367,1.499472 C74.510551,1.43758167 74.916714,1.57184134 75.2016785,1.86042008 C75.4866431,2.14899881 75.6157734,2.55682156 75.5488367,2.95682401 L75.5502407,2.95542001 Z" id="prefix__Path_2433" fill="#F6921E"></path><path d="M76.0486607,1.24700251e-15 L72.9500327,18.2520001 L65.6815247,21.7311121 L68.0879807,3.36117601 C68.1612032,2.80678618 68.5901103,2.36645678 69.1423847,2.27869201 L74.1069287,1.498068 C74.9591567,1.364688 75.6906407,2.10600001 76.0486607,0.001404 L76.0486607,1.24700251e-15 Z" id="prefix__Path_2434" fill="#F37C4B"></path><path d="M75.5502407,2.95542001 L74.3189327,10.204272 L66.9072167,12.393108 L68.0907887,3.35415601 C68.1640112,2.79976618 68.5929183,2.35943678 69.1451927,2.27167201 L74.1097367,1.492452 C74.510551,1.43056167 74.916714,1.56482134 75.2016785,1.85340008 C75.4866431,2.14197881 75.6157734,2.54980156 75.5488367,2.94980401 L75.5502407,2.95542001 Z" id="prefix__Path_2435" fill="#F05A28"></path><path d="M91.1234088,26.3558881 L86.6643048,26.0329681 L86.6165688,26.8402681 C85.5327505,26.2568377 84.335148,25.9157605 83.1065687,25.8406201 C80.7828077,25.6901327 78.5037268,26.5290426 76.8320927,28.1502001 C75.114276,29.8152855 74.1279944,32.094389 74.0900807,34.4864521 C73.9932047,38.1565081 78.2403047,43.2979561 80.4656447,43.4608201 C81.9889847,43.5745441 82.6544807,43.7079241 82.6994087,43.8258601 C82.7415287,43.9746841 81.7811927,44.0954281 80.3126087,44.1066601 C78.7278108,44.2473951 77.2169417,44.8410205 75.9602087,45.8167321 C74.3083764,47.3339585 73.5283872,49.5789984 73.8836927,51.7935602 C74.0767299,53.7306995 75.0501771,55.505741 76.5798352,56.7098667 C78.1094933,57.9139923 80.0634905,58.4433945 81.9917927,58.1761442 C82.0942847,58.1663162 82.1967767,58.1592962 82.3048847,58.1480642 C84.2887368,57.9557162 90.3273408,57.3702482 91.0826928,48.9869641 L92.3083848,27.7051321 C92.347029,27.0076297 91.8200633,26.407613 91.1234088,26.3558881 L91.1234088,26.3558881 Z M84.5246088,51.3625322 C84.4465964,51.453292 84.3579795,51.5343671 84.2606568,51.6040202 C83.4309926,52.1030132 82.50779,52.4265164 81.5481287,52.5545282 C80.8794526,52.7161748 80.1746565,52.6257009 79.5684887,52.3004042 C79.3117525,52.0515373 79.1772619,51.7024777 79.2006407,51.3456842 C79.1945055,50.9512241 79.3461312,50.5706435 79.6218407,50.2884722 C79.9998826,50.1052195 80.4007852,49.9734741 80.8138367,49.8967562 C82.2540668,49.6347648 83.7241408,49.5780417 85.1802768,49.7282762 C85.140294,50.3288856 84.9112731,50.9014378 84.5260128,51.3639362 L84.5246088,51.3625322 Z M85.6127088,44.2891801 C84.9500208,44.2119601 84.6102528,44.1010441 84.6102528,43.9999561 C84.6214848,43.9030801 84.9598488,43.8188401 85.6393848,43.7907601 L85.6127088,44.2891801 Z M86.6348208,36.5180401 C86.4502944,37.6087137 85.7950211,38.5628656 84.8433168,39.1266721 C83.9448645,39.6219256 82.8736321,39.6953963 81.9159767,39.3274441 C79.6648297,38.4012803 78.3723755,36.0226957 78.8201567,33.6300121 C79.0040948,32.5387135 79.660154,31.5841653 80.6130647,31.0213801 C81.0179132,30.7919576 81.466729,30.6508055 81.9300167,30.6072001 C82.474981,30.5571272 83.0242454,30.6295629 83.5375968,30.8192041 C85.7910516,31.7446017 87.085073,34.1250852 86.6362248,36.5194441 L86.6348208,36.5180401 Z" id="prefix__Path_2436" fill="#F05A28"></path><path d="M114.379265,43.9704721 L113.550905,44.2611001 C113.319245,44.3425321 113.084777,44.4141361 112.848905,44.4759121 C112.335449,44.6091372 111.812581,44.7030094 111.284849,44.7567121 C109.889641,45.0176449 108.448804,44.685418 107.308721,43.8399001 C106.308243,44.4350802 105.187005,44.798271 104.027573,44.9027281 C103.479742,44.95778 102.928043,44.9629492 102.379277,44.9181721 C101.509765,44.8667717 100.655258,44.6683363 99.8520768,44.3313001 C98.2687079,43.712718 97.0542858,42.4052367 96.5540808,40.7805841 C96.1244101,39.1358197 96.3738259,37.3873797 97.2462528,35.9283601 C99.070243,33.079719 102.51511,31.721467 105.792401,32.5587601 C105.887873,32.5840321 105.984749,32.6135161 106.073201,32.6444041 C105.95868,32.3480011 105.754497,32.0947358 105.489137,31.9199401 C103.523537,30.6900361 100.426313,32.4281881 100.398233,32.4464401 L99.5249448,32.9631121 L99.1191888,32.0463001 L97.5354768,28.3874761 C97.4287728,27.9859321 97.7980248,27.8469361 98.0591688,27.6714361 C99.3904821,27.0360854 100.793977,26.5646394 102.238877,26.2674361 C104.767349,25.5812091 107.461138,25.8667167 109.789589,27.0677161 C112.850309,28.8929161 112.305557,32.5152361 111.867509,35.4271321 C111.790289,35.9466121 111.710261,36.4717081 111.665333,36.9237961 C111.645677,37.1231641 111.620405,37.3323601 111.595133,37.5387481 C111.569861,37.7451361 111.526337,38.0484001 111.506681,38.4050161 C111.506681,38.4724081 111.544589,38.4794281 111.596537,38.4752161 L112.339253,38.0877121 L114.379265,43.9704721 Z M105.739049,40.2779521 C106.730783,39.8149981 107.26393,38.7217822 107.018093,37.6552801 C106.840271,37.1590466 106.453083,36.7662103 105.959477,36.5812201 C105.567814,36.4279651 105.144685,36.3725438 104.726765,36.4197601 C104.404016,36.453175 104.088239,36.5355516 103.790297,36.6640561 C103.735073,36.6855841 103.682189,36.7089841 103.631645,36.7342561 C102.975935,37.030373 102.460233,37.5687161 102.192545,38.2365361 C101.95102,38.8188578 102.052116,39.487068 102.455093,39.9718801 C102.845766,40.4193081 103.405728,40.6829997 103.999493,40.6991521 C104.605826,40.7271075 105.207494,40.5809532 105.733433,40.2779521 L105.739049,40.2779521 Z" id="prefix__Path_2437" fill="#F05A28"></path><path d="M132.457169,28.4225761 L129.720773,33.5766601 C129.653381,33.6861721 129.480689,33.6384361 129.389429,33.5247121 C128.451223,32.4863976 127.05859,31.9818509 125.673041,32.1782761 C125.136679,32.2959509 124.627123,32.5131075 124.170761,32.8185001 L123.287645,43.7051161 C123.268415,43.9429825 123.137503,44.1576298 122.934825,44.2836119 C122.732146,44.409594 122.481725,44.4319769 122.259917,44.3439361 L117.541073,42.4710001 C117.470873,42.4302841 117.458237,42.3404281 117.477893,42.2224921 L119.082665,25.5766681 C119.121978,25.1666174 119.483665,24.8643777 119.894177,24.8985361 L124.780097,25.3042921 L124.707089,26.1874081 C127.438991,25.30092 130.436947,26.0899135 132.378545,28.2063601 C132.454028,28.2495706 132.487733,28.3406342 132.458573,28.4225761 L132.457169,28.4225761 Z" id="prefix__Path_2438" fill="#F05A28"></path><path d="M141.831677,25.7156641 C141.864931,25.7087931 141.899471,25.7181604 141.924697,25.7408917 C141.949923,25.7636231 141.962824,25.7970041 141.959441,25.8307921 L140.218481,45.5036401 L139.988225,45.5036401 C139.214621,45.4853881 135.340985,45.3955321 134.907149,45.2635561 L134.719013,45.2073961 L135.857657,27.0817561 C135.860391,27.03376 135.894884,26.9935191 135.941897,26.9834761 L141.831677,25.7156641 Z M136.323785,20.8662481 C136.101156,20.3664168 136.087007,19.7984483 136.284473,19.2881521 C136.47456,18.7931459 136.801851,18.3626025 137.227961,18.0470161 C137.932824,17.5381334 138.856455,17.4463454 139.647686,17.80655 C140.438917,18.1667546 140.976202,18.9236185 141.055265,19.7893801 C141.066431,20.0509608 141.026859,20.31223 140.938733,20.5587721 C140.711875,21.1153839 140.271415,21.557866 139.715849,21.7872721 C139.410196,21.929378 139.08349,22.0208936 138.748493,22.0582441 C137.767911,22.2244278 136.791063,21.7442052 136.323785,20.8662481 L136.323785,20.8662481 Z" id="prefix__Path_2439" fill="#F05A28"></path></g></g></g></g></g></svg>