<svg width="236" height="47" viewBox="0 0 236 47" fill="none" xmlns="http://www.w3.org/2000/svg">
<path d="M86.6676 35.2273C85.7282 37.803 84.3949 39.6515 82.6676 40.7727C80.9706 41.8939 79.0616 42.4545 76.9403 42.4545C75.2131 42.4545 73.804 42.0303 72.7131 41.1818C71.6222 40.303 70.9403 39.1212 70.6676 37.6364C70.3949 36.1212 70.5919 34.4242 71.2585 32.5455C71.5009 31.8485 71.6676 31.3182 71.7585 30.9545C71.8494 30.5909 71.91 30.2576 71.9403 29.9545H77.9858C77.9858 30.5303 77.8797 31.1364 77.6676 31.7727L76.6222 34.6818C76.3494 35.4091 76.304 36.0152 76.4858 36.5C76.6979 36.9848 77.0767 37.2273 77.6222 37.2273C78.1373 37.2273 78.5919 37.0455 78.9858 36.6818C79.3797 36.2879 79.6979 35.7576 79.9403 35.0909C80.2434 34.3333 80.41 33.5758 80.4403 32.8182C80.4706 32.0303 80.3797 31.1212 80.1676 30.0909C79.9858 29.0303 79.6676 27.7121 79.2131 26.1364L78.8494 24.7727C78.2737 22.6515 77.8797 20.5909 77.6676 18.5909C77.4555 16.5606 77.6828 14.5909 78.3494 12.6818C79.2888 10.1061 80.5616 8.21212 82.1676 7C83.804 5.78788 85.7434 5.18182 87.9858 5.18182C89.6828 5.18182 91.0767 5.62121 92.1676 6.5C93.2888 7.34849 94.0009 8.56061 94.304 10.1364C94.6373 11.6818 94.4252 13.5 93.6676 15.5909C93.4858 16.0758 93.3343 16.5303 93.2131 16.9545C93.0919 17.3485 93.0312 17.7424 93.0312 18.1364H87.0312C87.0312 17.803 87.0464 17.4697 87.0767 17.1364C87.1373 16.7727 87.2585 16.3485 87.4403 15.8636L88.6222 12.5909C88.8949 11.8636 88.91 11.3182 88.6676 10.9545C88.4252 10.5909 88.0616 10.4091 87.5767 10.4091C86.9706 10.4091 86.4706 10.6212 86.0767 11.0455C85.7131 11.4697 85.3797 12.0909 85.0767 12.9091C84.7737 13.7576 84.6373 14.697 84.6676 15.7273C84.6979 16.7273 84.8191 17.7273 85.0312 18.7273C85.2434 19.7273 85.4555 20.6212 85.6676 21.4091L86.0313 22.7727C86.6373 24.9848 87.0767 27.1061 87.3494 29.1364C87.6525 31.1364 87.4252 33.1667 86.6676 35.2273ZM98.8265 5.63636H105.645L95.0083 34.8182C94.7659 35.5152 94.7508 36.0606 94.9629 36.4545C95.2053 36.8182 95.569 37 96.0538 37C96.6296 37 97.069 36.803 97.372 36.4091C97.675 36.0152 97.9477 35.4848 98.1902 34.8182L108.827 5.63636H115.645L105.645 33C104.463 36.2424 103.023 38.6364 101.327 40.1818C99.6296 41.697 97.5235 42.4545 95.0083 42.4545C93.4932 42.4545 92.1599 42.0303 91.0083 41.1818C89.8568 40.303 89.1296 38.9848 88.8265 37.2273C88.4932 35.4394 88.8114 33.197 89.7811 30.5L98.8265 5.63636ZM117.479 5.63636H123.57C125.449 5.63636 127.024 6.18182 128.297 7.27273C129.57 8.36364 130.358 9.87879 130.661 11.8182C130.994 13.7576 130.691 16.0152 129.752 18.5909L129.433 19.4545C128.191 22.8182 126.418 25.303 124.115 26.9091C121.843 28.4848 119.039 29.2727 115.706 29.2727L111.07 42H104.252L117.479 5.63636ZM122.297 11.0909L117.661 23.8182H118.024C120.055 23.8182 121.433 22.803 122.161 20.7727L124.115 15.4091C124.57 14.1364 124.661 13.1061 124.388 12.3182C124.115 11.5 123.524 11.0909 122.615 11.0909H122.297ZM135.741 5.63636H148.013L145.831 11.5455H140.377L137.104 20.6364H141.877L139.695 26.5455H134.922L131.468 36.0909H136.922L134.786 42H122.513L135.741 5.63636ZM149.461 5.63636H155.961C157.658 5.63636 159.113 6.15151 160.325 7.18182C161.537 8.18182 162.295 9.65151 162.598 11.5909C162.931 13.5303 162.583 15.8939 161.552 18.6818C160.855 20.6212 159.916 22.303 158.734 23.7273C157.552 25.1212 156.067 26.3939 154.279 27.5455L152.689 42H146.007L148.325 28.5909H147.643L143.052 42H136.234L149.461 5.63636ZM154.279 11.0909L149.734 23.5909H150.143C150.961 23.5909 151.689 23.3939 152.325 23C152.961 22.5758 153.461 21.8939 153.825 20.9545L156.007 15.0909C156.552 13.6364 156.613 12.6061 156.189 12C155.795 11.3939 155.249 11.0909 154.552 11.0909H154.279ZM165.469 5.63636H181.378L179.241 11.5455H174.696L163.605 42H156.787L167.878 11.5455H163.332L165.469 5.63636ZM182.713 5.63636H194.986L192.804 11.5455H187.35L184.077 20.6364H188.85L186.668 26.5455H181.895L178.441 36.0909H183.895L181.759 42H169.486L182.713 5.63636ZM199.07 5.63636H209.07L199.343 42H192.888L195.252 33.3636H192.707L188.798 42H182.661V41.5455L199.07 5.63636ZM194.888 27.4545H197.343L200.888 14.9545H200.434L194.888 27.4545ZM213.719 5.63636H220.855L216.674 25.1818H217.128L227.219 5.63636H235.083L221.855 42H215.946L222.492 25.1818H222.037L213.446 42H208.901L212.492 25.1818H212.037L206.401 42H200.492L213.719 5.63636Z" fill="#F1A53A"/>
<path d="M16.5337 0H77L62.3558 47H0L16.5337 0Z" fill="white"/>
<path d="M8.69008 42.004L21.9725 5.66049L34.2452 5.67909L32.0544 11.5849L26.5999 11.5766L23.3134 20.6625L27.8588 20.6694L25.668 26.5752L21.1226 26.5683L15.5083 42.0144L8.69008 42.004ZM34.9524 5.68016L50.8615 5.70428L48.7161 11.6101L44.1707 11.6032L33.0336 42.0409L26.2155 42.0306L37.3525 11.5929L32.8071 11.586L34.9524 5.68016ZM62.1061 5.72132L68.3788 5.73083L68.3782 6.18538L58.941 24.7166L55.5055 42.075L48.8237 42.0649L51.5243 29.7053L51.0698 29.7046L44.7328 42.0587L38.3692 42.049L38.3699 41.5945L48.4449 22.1097L51.7425 5.70561L58.0152 5.71512L55.4059 17.8475L55.8605 17.8482L62.1061 5.72132Z" fill="#5522DF"/>
</svg>
