<svg width="240" height="55" viewBox="0 0 240 55" fill="none" xmlns="http://www.w3.org/2000/svg">
<path d="M0 0.965332C2.50876 1.41004 5.02041 1.83059 7.53497 2.22696V23.0124C10.2322 23.1026 12.931 23.1897 15.6311 23.2734C15.6311 16.6543 15.6311 10.0336 15.6311 3.41125C18.1457 3.75928 20.6646 4.08154 23.1879 4.37801C23.1879 20.0235 23.1879 35.6738 23.1879 51.329C20.6675 51.59 18.1486 51.8768 15.6311 52.1894V30.2583C12.9281 30.2777 10.2293 30.3002 7.53497 30.326V53.3205C5.02041 53.6943 2.50876 54.0988 0 54.5338V0.965332Z" fill="#121214"/>
<path d="M38.4653 50.6813C34.7892 50.9423 31.9918 50.2317 30.0646 48.4287C28.1374 46.6257 27.1716 43.7689 27.1716 40.0323C27.1716 28.3119 27.1716 16.5915 27.1716 4.87109C29.6948 5.15146 32.221 5.40926 34.75 5.64451C34.75 17.1748 34.75 28.7051 34.75 40.2354C34.75 41.7693 35.072 42.8601 35.7158 43.5079C36.4032 44.1524 37.3675 44.4424 38.6089 44.378C39.8531 44.32 40.7841 43.9429 41.4367 43.2517C42.0892 42.5604 42.4721 41.468 42.4721 39.9792C42.4721 28.7518 42.4721 17.5244 42.4721 6.29707C44.9083 6.48559 47.3489 6.64511 49.7852 6.78046C49.7852 17.6179 49.7852 28.4569 49.7852 39.2976C49.7852 42.749 48.8194 45.4269 46.8834 47.3991C44.9475 49.3713 42.1458 50.4251 38.4653 50.6813Z" fill="#121214"/>
<path d="M53.8152 7.00659C57.6784 7.1935 61.5445 7.33046 65.4135 7.41747C69.1896 7.50448 72.0261 8.38423 73.9142 10.1244C75.8023 11.8646 76.7464 14.3927 76.7464 17.7377C76.7464 24.7081 76.7464 31.6768 76.7464 38.644C76.7464 41.989 75.8009 44.5268 73.9099 46.2573C72.0218 47.9926 69.1896 48.8724 65.4135 48.9352C61.5445 48.9997 57.6755 49.1044 53.8065 49.2494C53.8123 35.1669 53.8152 21.0859 53.8152 7.00659ZM65.2568 43.0041C66.5011 43.0041 67.4451 42.6819 68.089 42.0373C68.7807 41.3993 69.1244 40.3745 69.1287 38.9534C69.1287 31.78 69.1287 24.6049 69.1287 17.4283C69.1287 16.0072 68.7807 14.9776 68.0933 14.3395C67.406 13.7014 66.5011 13.3727 65.2612 13.3727L61.3893 13.2954V43.0573L65.2568 43.0041Z" fill="#121214"/>
<path d="M80.4829 7.49143C84.349 7.44309 88.2166 7.34319 92.0856 7.19173C95.8617 7.03705 98.6895 7.76212 100.578 9.44913C102.466 11.1361 103.405 13.7319 103.405 17.2123C103.405 24.4565 103.405 31.7073 103.405 38.9645C103.405 42.4513 102.463 45.0535 100.578 46.7711C98.6939 48.4871 95.8617 49.246 92.0856 49.13C88.2195 49.014 84.3505 48.9383 80.4786 48.9028L80.4829 7.49143ZM91.9594 43.1119C93.2036 43.1377 94.1477 42.8364 94.7915 42.208C95.4818 41.5635 95.8269 40.5258 95.8269 39.095C95.8269 31.7766 95.8269 24.4598 95.8269 17.1446C95.8269 15.7009 95.4818 14.668 94.7915 14.0461C94.1477 13.4225 93.2036 13.1373 91.9637 13.1712L88.0962 13.2727V43.0539C89.3839 43.0732 90.6717 43.1119 91.9594 43.1119Z" fill="#121214"/>
<path d="M107.155 6.33098C109.684 6.14085 112.212 5.92978 114.738 5.69775C114.738 18.4365 114.738 31.1736 114.738 43.9091C118.894 44.1218 123.046 44.378 127.194 44.6777V51.3967C120.524 50.6958 113.846 50.1689 107.155 49.7726C107.158 35.2904 107.158 20.8099 107.155 6.33098Z" fill="#121214"/>
<path d="M129.452 4.08315C136.325 3.21306 143.186 2.17379 150.034 0.965332V8.61728C145.683 9.16512 141.341 9.66783 137.008 10.1254V23.2058L147.362 22.8674V30.3888C143.917 30.3373 140.466 30.3002 137.008 30.2777V45.48C141.359 45.8829 145.701 46.3501 150.034 46.8819V54.5338C143.186 53.3447 136.33 52.3973 129.456 51.6335C129.456 35.7818 129.455 19.9317 129.452 4.08315Z" fill="#121214"/>
<path d="M208.161 2.51978H176.838C174.3 2.51978 171.865 3.52802 170.07 5.3227C168.275 7.11738 167.267 9.55149 167.267 12.0896V43.4089C167.267 45.9469 168.275 48.381 170.07 50.1757C171.865 51.9704 174.3 52.9786 176.838 52.9786H208.161C210.699 52.9786 213.134 51.9704 214.929 50.1757C216.724 48.381 217.732 45.9469 217.732 43.4089V12.0896C217.732 9.55149 216.724 7.11738 214.929 5.3227C213.134 3.52802 210.699 2.51978 208.161 2.51978V2.51978Z" fill="#246BFD"/>
<path d="M185.606 45.4821C183.268 45.4821 181.48 44.7265 180.242 43.2151C179.003 41.7037 178.384 39.5704 178.384 36.8151V18.6882C178.384 15.9265 179.003 13.7916 180.242 12.2834C181.48 10.7753 183.268 10.0196 185.606 10.0164C187.926 10.0164 189.712 10.772 190.965 12.2834C192.218 13.7948 192.838 15.9297 192.823 18.6882V36.8151C192.823 39.5704 192.204 41.7037 190.965 43.2151C189.727 44.7265 187.94 45.4821 185.606 45.4821ZM185.606 40.5565C187.244 40.5565 188.065 39.4286 188.068 37.1728V18.3402C188.068 16.0844 187.247 14.9565 185.606 14.9565C183.964 14.9565 183.142 16.0844 183.139 18.3402V37.1583C183.139 39.427 183.961 40.5597 185.606 40.5565Z" fill="white"/>
<path d="M201.839 18.6884H196.866V14.8455C197.958 14.8805 199.049 14.7471 200.107 14.4491C200.872 14.2434 201.568 13.799 202.113 13.1681C202.689 12.3769 203.131 11.4761 203.418 10.5095H206.615V44.9892H201.839V18.6884Z" fill="white"/>
<path d="M234.684 9.73333C234.244 9.83816 233.826 10.035 233.453 10.3134L225.992 15.3599C224.822 16.1577 223.862 17.2829 223.207 18.6227C222.535 19.9911 222.183 21.5254 222.185 23.0844V32.4233C222.184 33.9858 222.537 35.5234 223.212 36.8946C223.869 38.2381 224.834 39.3651 226.009 40.1623L233.527 45.2088C234.013 45.5429 234.557 45.7618 235.123 45.8517C235.686 45.939 236.26 45.8946 236.807 45.7212C237.36 45.5438 237.874 45.2446 238.321 44.8414C238.773 44.4284 239.149 43.921 239.426 43.3478C239.804 42.5625 240.001 41.6858 240 40.7955V14.6445C239.999 13.8867 239.85 13.1382 239.565 12.4499C239.283 11.7734 238.87 11.1742 238.356 10.6953C237.851 10.2267 237.255 9.89558 236.615 9.72849C235.98 9.55926 235.318 9.56092 234.684 9.73333Z" fill="#246BFD"/>
</svg>
